<svg width="16" height="15" viewBox="0 0 16 15" fill="none" xmlns="http://www.w3.org/2000/svg">
<g clip-path="url(#clip0)">
<path d="M4.72727 3.63636C3.92727 3.63636 3.27273 4.29091 3.27273 5.09091C3.27273 5.89091 3.92727 6.54545 4.72727 6.54545C5.52727 6.54545 6.18182 5.89091 6.18182 5.09091C6.18182 4.29091 5.52727 3.63636 4.72727 3.63636ZM4.72727 2.18182C6.32727 2.18182 7.63636 3.49091 7.63636 5.09091C7.63636 6.69091 6.32727 8 4.72727 8C3.12727 8 1.81818 6.69091 1.81818 5.09091C1.81818 3.49091 3.12727 2.18182 4.72727 2.18182ZM9.45455 13.8182C9.45455 14.2545 9.16364 14.5455 8.72727 14.5455C8.29091 14.5455 8 14.2545 8 13.8182V10.6909C8 10.4 7.78182 10.1818 7.49091 10.1818H1.96364C1.67273 10.1818 1.45455 10.4 1.45455 10.6909V13.8182C1.45455 14.2545 1.16364 14.5455 0.727273 14.5455C0.290909 14.5455 0 14.2545 0 13.8182V10.6909C0 9.6 0.872727 8.72727 1.96364 8.72727H7.49091C8.58182 8.72727 9.45455 9.6 9.45455 10.6909V13.8182ZM11.2727 0C12.8727 0 14.1818 1.30909 14.1818 2.90909C14.1818 4.50909 12.8727 5.81818 11.2727 5.81818C9.67273 5.81818 8.36364 4.50909 8.36364 2.90909C8.36364 1.30909 9.67273 0 11.2727 0ZM11.2727 1.45455C10.4727 1.45455 9.81818 2.10909 9.81818 2.90909C9.81818 3.70909 10.4727 4.36364 11.2727 4.36364C12.0727 4.36364 12.7273 3.70909 12.7273 2.90909C12.7273 2.10909 12.0727 1.45455 11.2727 1.45455ZM16 11.6364C16 12.0727 15.7091 12.3636 15.2727 12.3636C14.8364 12.3636 14.5455 12.0727 14.5455 11.6364V8.50909C14.5455 8.21818 14.3273 8 14.0364 8H9.09091C8.65455 8 8.36364 7.70909 8.36364 7.27273C8.36364 6.83636 8.65455 6.54545 9.09091 6.54545H14.0364C15.1273 6.54545 16 7.41818 16 8.50909V11.6364Z" fill="#BCC2C2"/>
</g>
<defs>
<clipPath id="clip0">
<rect width="16" height="14.5455" fill="white"/>
</clipPath>
</defs>
</svg>
