<svg width="16" height="17" viewBox="0 0 16 17" fill="none" xmlns="http://www.w3.org/2000/svg">
<g clip-path="url(#clip0)">
<path d="M15.7059 15.1351L12.6443 12.0735C13.7859 10.7935 14.4951 9.09838 14.4951 7.24757C14.4951 3.25189 11.2432 0 7.24757 0C3.25189 0 0 3.25189 0 7.24757C0 11.2432 3.25189 14.4951 7.24757 14.4951C8.66595 14.4951 9.98054 14.08 11.0876 13.3881L14.2703 16.5708C14.4605 16.7611 14.72 16.8649 14.9795 16.8649C15.2389 16.8649 15.4984 16.7611 15.6886 16.5708C16.1038 16.173 16.1038 15.533 15.7059 15.1351ZM2.02378 7.24757C2.02378 4.37622 4.35892 2.02378 7.24757 2.02378C10.1362 2.02378 12.4541 4.37622 12.4541 7.24757C12.4541 10.1189 10.1189 12.4714 7.24757 12.4714C4.37622 12.4714 2.02378 10.1362 2.02378 7.24757Z" fill="#BCC2C2"/>
</g>
<defs>
<clipPath id="clip0">
<rect width="16" height="16.8649" fill="white"/>
</clipPath>
</defs>
</svg>
