<?xml version="1.0" encoding="utf-8"?>
<!-- Generator: Adobe Illustrator 24.2.0, SVG Export Plug-In . SVG Version: 6.00 Build 0)  -->
<svg version="1.1" id="Layer_1" xmlns="http://www.w3.org/2000/svg" xmlns:xlink="http://www.w3.org/1999/xlink" x="0px" y="0px"
	 viewBox="0 0 402.5 306.1" style="enable-background:new 0 0 402.5 306.1;" xml:space="preserve">
<style type="text/css">
	.st0{filter:url(#Adobe_OpacityMaskFilter);}
	.st1{clip-path:url(#SVGID_2_);fill:url(#SVGID_4_);}
	.st2{clip-path:url(#SVGID_2_);mask:url(#SVGID_3_);fill:url(#SVGID_5_);}
	.st3{fill:#FFFFFF;}
	.st4{fill:#2A2724;}
	.st5{fill:#6E6A69;}
</style>
<g>
	<defs>
		<path id="SVGID_1_" d="M47.7,153.1c0,84.5,68.5,153.1,153.1,153.1c84.5,0,153.1-68.5,153.1-153.1S285.3,0,200.8,0
			C116.2,0,47.7,68.5,47.7,153.1"/>
	</defs>
	<clipPath id="SVGID_2_">
		<use xlink:href="#SVGID_1_"  style="overflow:visible;"/>
	</clipPath>
	<defs>
		<filter id="Adobe_OpacityMaskFilter" filterUnits="userSpaceOnUse" x="47.7" y="0" width="306.1" height="306.1">
			<feColorMatrix  type="matrix" values="1 0 0 0 0  0 1 0 0 0  0 0 1 0 0  0 0 0 1 0"/>
		</filter>
	</defs>
	<mask maskUnits="userSpaceOnUse" x="47.7" y="0" width="306.1" height="306.1" id="SVGID_3_">
		<g class="st0">
			
				<radialGradient id="SVGID_4_" cx="49.8398" cy="258.9183" r="4.9526" gradientTransform="matrix(30.9072 0 0 -30.9072 -1339.6483 8155.5166)" gradientUnits="userSpaceOnUse">
				<stop  offset="0" style="stop-color:#636363"/>
				<stop  offset="0.169" style="stop-color:#787878"/>
				<stop  offset="0.5167" style="stop-color:#ADADAD"/>
				<stop  offset="1" style="stop-color:#FFFFFF"/>
			</radialGradient>
			<rect x="47.7" y="0" class="st1" width="306.1" height="306.1"/>
		</g>
	</mask>
	
		<radialGradient id="SVGID_5_" cx="49.8399" cy="258.9183" r="4.9526" gradientTransform="matrix(30.9072 0 0 -30.9072 -1339.6484 8155.5171)" gradientUnits="userSpaceOnUse">
		<stop  offset="0" style="stop-color:#F49800"/>
		<stop  offset="1" style="stop-color:#F59C00"/>
	</radialGradient>
	<rect x="47.7" y="0" class="st2" width="306.1" height="306.1"/>
</g>
<path class="st3" d="M159.3,99c16.2,0.8,27.7,1.8,34.6,3.2c6.9,1.4,10.4,4.2,10.4,8.3c0,1.8-0.6,3.1-1.7,3.8c-1.1,0.7-3,1.2-5.6,1.6
	c-2.6,0.4-5.7,0.9-9.2,1.5c-5.2,0.9-13.9,2.7-25.9,5.4c-12,2.7-18.6,4-19.9,4c-6,0-9-3.8-9-11.3c0-6.8,1.4-15.5,4.3-26.1
	c2.8-10.6,6.7-20.5,11.5-29.7c4.8-9.2,10-15.7,15.3-19.5c6.3-4.5,16.1-9,29.5-13.5c13.3-4.5,28.3-8.4,44.8-11.5
	c16.6-3.2,31.7-4.7,45.4-4.7c6.9,0,12,1,15.4,2.9c3.3,1.9,5.7,4.5,7,7.8c1.4,3.3,3.7,10,6.9,20.2c3.1,9.4,4.6,20.1,4.6,32.1
	c0,14.6-3.4,27.2-10.2,37.9c-6.8,10.6-16.2,20.4-28.2,29.3c-12,8.9-33,22.8-62.9,41.5c-30,18.7-53.3,33.7-69.9,44.9
	c-1.5,1.1-4.7,3.1-9.5,6.1c-4.8,3-9,6.1-12.7,9.4c-3.7,3.2-7.5,7.4-11.3,12.5c20.6-2,53.3-7.6,97.9-16.8c12.2-2.6,24-5.5,35.5-8.7
	c11.5-3.1,18.4-4.7,20.7-4.7c3.9,0,5.8,1.9,5.8,5.8c0,3.5-0.8,7.9-2.4,13c-1.6,5.2-4,10.4-7.1,15.7c-3.1,5.3-6.7,9.9-10.8,13.7
	c-20.3,18.9-59.6,28.4-117.8,28.4c-15.1,0-25.2-2.4-30.2-7.2c-3.1-2.8-6.3-9-9.7-18.7c-3.4-9.7-5.1-16.9-5.1-21.5
	c0-8,3.9-17.8,11.8-29.4c7.9-11.6,18.6-23.6,32.3-35.8c13.7-12.2,28.8-23.1,45.3-32.7c50.2-28.6,76.8-44,79.9-46.2
	c11.2-7.7,20-15.5,26.5-23.3c6.4-7.8,9.6-14.2,9.6-18.9c0-4.3-1.7-7.7-5.2-10c-3.5-2.4-8.4-3.6-14.7-3.6c-10,0-22,1.8-36.1,5.4
	c-14.1,3.6-28.3,8.9-42.7,15.7C182,82.2,169.6,90.1,159.3,99"/>
<polygon class="st4" points="85.9,178.3 0,178.3 0,165 62,86.8 1.3,86.8 1.3,71.8 84.3,71.8 84.3,84.6 22,163.1 85.9,163.1 "/>
<path class="st4" d="M205.7,126.9h-78.4c0,6.5,1,12.2,3,17.1c2,4.9,4.7,8.8,8.1,12c3.3,3,7.2,5.3,11.8,6.9c4.5,1.5,9.5,2.3,15,2.3
	c7.2,0,14.5-1.4,21.9-4.3c7.3-2.9,12.6-5.7,15.7-8.5h1v19.5c-6,2.5-12.2,4.7-18.5,6.4c-6.3,1.7-12.9,2.6-19.8,2.6
	c-17.7,0-31.4-4.8-41.3-14.3c-9.9-9.6-14.9-23.1-14.9-40.7c0-17.4,4.7-31.2,14.2-41.5c9.5-10.2,22-15.3,37.5-15.3
	c14.4,0,25.4,4.2,33.2,12.6c7.8,8.4,11.7,20.3,11.7,35.7V126.9z M188.3,113.2c-0.1-9.4-2.4-16.7-7.1-21.8
	c-4.7-5.1-11.8-7.7-21.3-7.7c-9.6,0-17.2,2.8-22.9,8.5c-5.7,5.7-8.9,12.7-9.7,21.1H188.3z"/>
<path class="st4" d="M315.3,147.6c0,9.7-4,17.7-12.1,23.9c-8,6.2-19,9.3-32.9,9.3c-7.9,0-15.1-0.9-21.7-2.8
	c-6.6-1.9-12.1-3.9-16.5-6.1v-20.1h1c5.7,4.3,11.9,7.6,18.9,10.1c6.9,2.5,13.6,3.8,19.9,3.8c7.9,0,14-1.3,18.5-3.8
	c4.4-2.5,6.7-6.5,6.7-12c0-4.2-1.2-7.4-3.6-9.5c-2.4-2.2-7.1-4-13.9-5.5c-2.5-0.6-5.9-1.2-10-2c-4.1-0.8-7.8-1.6-11.2-2.5
	c-9.3-2.5-16-6.1-19.9-10.9c-3.9-4.8-5.9-10.7-5.9-17.7c0-4.4,0.9-8.5,2.7-12.4c1.8-3.9,4.6-7.3,8.2-10.4c3.6-3,8.1-5.4,13.6-7.1
	c5.5-1.7,11.6-2.6,18.4-2.6c6.4,0,12.8,0.8,19.3,2.3c6.5,1.6,11.9,3.4,16.2,5.7v19.2h-1c-4.6-3.4-10.1-6.2-16.7-8.5
	c-6.5-2.3-13-3.5-19.3-3.5c-6.5,0-12.1,1.3-16.6,3.8c-4.5,2.5-6.8,6.2-6.8,11.2c0,4.4,1.4,7.7,4.1,9.9c2.7,2.2,7,4,13,5.4
	c3.3,0.8,7,1.5,11.1,2.3c4.1,0.8,7.5,1.5,10.2,2.1c8.3,1.9,14.7,5.2,19.3,9.8C313.1,133.6,315.3,139.8,315.3,147.6"/>
<path class="st4" d="M402.7,177.3c-3.4,0.9-7,1.6-11,2.2c-4,0.6-7.5,0.9-10.6,0.9c-10.9,0-19.1-2.9-24.8-8.8
	c-5.7-5.8-8.5-15.2-8.5-28.1V86.9h-12.1V71.8h12.1V41.2h17.9v30.6h37v15.1h-37v48.5c0,5.6,0.1,10,0.4,13.1c0.3,3.1,1.1,6.1,2.7,8.8
	c1.4,2.5,3.3,4.4,5.8,5.6c2.4,1.2,6.2,1.8,11.2,1.8c2.9,0,6-0.4,9.1-1.3c3.2-0.9,5.5-1.6,6.9-2.1h1V177.3z"/>
<path class="st5" d="M23.7,218.1h-0.3c-0.8-0.2-1.6-0.3-2.3-0.4c-0.8-0.1-1.6-0.1-2.7-0.1c-1.7,0-3.3,0.4-4.8,1.1
	c-1.5,0.7-3,1.7-4.5,2.8v22.7H3.7v-31.9h5.4v4.7c2.1-1.7,4-2.9,5.6-3.6c1.6-0.7,3.3-1.1,5-1.1c0.9,0,1.6,0,2,0.1
	c0.4,0,1,0.1,1.9,0.3V218.1z"/>
<path class="st5" d="M61,228.7H37.5c0,2,0.3,3.7,0.9,5.1c0.6,1.5,1.4,2.7,2.4,3.6c1,0.9,2.2,1.6,3.5,2.1c1.4,0.5,2.9,0.7,4.5,0.7
	c2.2,0,4.4-0.4,6.6-1.3c2.2-0.9,3.8-1.7,4.7-2.6h0.3v5.9c-1.8,0.8-3.7,1.4-5.5,1.9c-1.9,0.5-3.9,0.8-5.9,0.8
	c-5.3,0-9.4-1.4-12.4-4.3c-3-2.9-4.5-6.9-4.5-12.2c0-5.2,1.4-9.4,4.3-12.4c2.9-3.1,6.6-4.6,11.3-4.6c4.3,0,7.6,1.3,10,3.8
	c2.3,2.5,3.5,6.1,3.5,10.7V228.7z M55.8,224.6c0-2.8-0.7-5-2.1-6.5c-1.4-1.6-3.5-2.3-6.4-2.3c-2.9,0-5.2,0.8-6.9,2.5
	c-1.7,1.7-2.7,3.8-2.9,6.3H55.8z"/>
<path class="st5" d="M98.3,242.1c-1.8,0.9-3.5,1.5-5.1,2c-1.6,0.5-3.3,0.7-5.1,0.7c-2.3,0-4.4-0.3-6.4-1c-1.9-0.7-3.6-1.7-4.9-3.1
	c-1.4-1.4-2.5-3.1-3.2-5.2c-0.8-2.1-1.1-4.5-1.1-7.3c0-5.2,1.4-9.3,4.3-12.3c2.9-3,6.7-4.5,11.4-4.5c1.8,0,3.6,0.3,5.4,0.8
	c1.8,0.5,3.4,1.1,4.8,1.9v6h-0.3c-1.6-1.3-3.3-2.3-5.1-2.9c-1.7-0.7-3.4-1-5.1-1c-3.1,0-5.5,1-7.2,3.1c-1.8,2.1-2.6,5.1-2.6,9
	c0,3.9,0.9,6.8,2.6,8.9c1.7,2.1,4.2,3.1,7.3,3.1c1.1,0,2.2-0.1,3.3-0.4c1.1-0.3,2.1-0.7,3-1.1c0.8-0.4,1.5-0.8,2.2-1.3
	c0.7-0.4,1.2-0.8,1.6-1.2h0.3V242.1z"/>
<path class="st5" d="M130.7,218.1h-0.3c-0.8-0.2-1.6-0.3-2.3-0.4c-0.8-0.1-1.6-0.1-2.7-0.1c-1.7,0-3.3,0.4-4.8,1.1
	c-1.5,0.7-3,1.7-4.5,2.8v22.7h-5.4v-31.9h5.4v4.7c2.1-1.7,4-2.9,5.6-3.6c1.6-0.7,3.3-1.1,5-1.1c0.9,0,1.6,0,2,0.1
	c0.4,0,1,0.1,1.9,0.3V218.1z"/>
<path class="st5" d="M167.8,244.1h-5.4v-3.5c-1.8,1.4-3.5,2.5-5.2,3.3c-1.7,0.8-3.5,1.1-5.5,1.1c-3.4,0-6-1-7.8-3.1
	c-1.9-2.1-2.8-5.1-2.8-9v-20.7h5.4v18.2c0,1.6,0.1,3,0.2,4.2c0.2,1.2,0.5,2.1,1,3c0.5,0.8,1.2,1.4,2,1.8c0.8,0.4,2,0.6,3.6,0.6
	c1.4,0,2.9-0.4,4.6-1.1c1.6-0.7,3.2-1.6,4.6-2.8v-23.8h5.4V244.1z"/>
<path class="st5" d="M189.7,206.9h-6.1v-5.6h6.1V206.9z M189.4,244.1H184v-31.9h5.4V244.1z"/>
<path class="st5" d="M222.2,243.8c-1,0.3-2.1,0.5-3.3,0.7c-1.2,0.2-2.3,0.3-3.2,0.3c-3.3,0-5.7-0.9-7.4-2.6
	c-1.7-1.7-2.5-4.6-2.5-8.4v-17h-3.6v-4.5h3.6V203h5.4v9.2h11.1v4.5h-11.1v14.6c0,1.7,0,3,0.1,3.9c0.1,0.9,0.3,1.8,0.8,2.6
	c0.4,0.8,1,1.3,1.7,1.7c0.7,0.4,1.9,0.5,3.4,0.5c0.9,0,1.8-0.1,2.7-0.4c1-0.3,1.6-0.5,2.1-0.6h0.3V243.8z"/>
<path class="st5" d="M280.8,244.1h-5.4v-18.2c0-1.4-0.1-2.7-0.2-4c-0.1-1.3-0.4-2.3-0.8-3.1c-0.4-0.8-1.1-1.4-1.9-1.9
	c-0.8-0.4-2-0.6-3.5-0.6c-1.5,0-3,0.4-4.5,1.1c-1.5,0.8-3,1.7-4.5,2.9c0.1,0.4,0.1,0.9,0.1,1.5c0,0.6,0.1,1.2,0.1,1.7v20.4h-5.4
	v-18.2c0-1.4-0.1-2.7-0.2-4c-0.1-1.3-0.4-2.3-0.8-3c-0.4-0.8-1.1-1.4-1.9-1.8c-0.8-0.4-2-0.6-3.5-0.6c-1.5,0-2.9,0.4-4.4,1.1
	c-1.5,0.7-2.9,1.6-4.4,2.8v23.8h-5.4v-31.9h5.4v3.5c1.7-1.4,3.3-2.5,5-3.3c1.7-0.8,3.4-1.2,5.3-1.2c2.2,0,4,0.5,5.5,1.4
	c1.5,0.9,2.6,2.2,3.4,3.8c2.2-1.8,4.2-3.1,6-4c1.8-0.8,3.7-1.2,5.7-1.2c3.5,0,6.1,1.1,7.8,3.2c1.7,2.1,2.5,5.1,2.5,8.9V244.1z"/>
<path class="st5" d="M323.5,228.7h-23.5c0,2,0.3,3.7,0.9,5.1c0.6,1.5,1.4,2.7,2.4,3.6c1,0.9,2.2,1.6,3.5,2.1
	c1.4,0.5,2.9,0.7,4.5,0.7c2.2,0,4.4-0.4,6.6-1.3c2.2-0.9,3.8-1.7,4.7-2.6h0.3v5.9c-1.8,0.8-3.7,1.4-5.5,1.9
	c-1.9,0.5-3.9,0.8-5.9,0.8c-5.3,0-9.4-1.4-12.4-4.3c-3-2.9-4.5-6.9-4.5-12.2c0-5.2,1.4-9.4,4.3-12.4c2.9-3.1,6.6-4.6,11.3-4.6
	c4.3,0,7.6,1.3,10,3.8c2.3,2.5,3.5,6.1,3.5,10.7V228.7z M318.2,224.6c0-2.8-0.7-5-2.1-6.5c-1.4-1.6-3.5-2.3-6.4-2.3
	c-2.9,0-5.2,0.8-6.9,2.5c-1.7,1.7-2.7,3.8-2.9,6.3H318.2z"/>
<path class="st5" d="M363.9,244.1h-5.4v-18.2c0-1.5-0.1-2.8-0.3-4.1c-0.2-1.3-0.5-2.3-0.9-3c-0.5-0.8-1.2-1.4-2.1-1.8
	c-0.9-0.4-2.1-0.6-3.5-0.6c-1.5,0-3,0.4-4.6,1.1c-1.6,0.7-3.1,1.6-4.6,2.8v23.8h-5.4v-31.9h5.4v3.5c1.7-1.4,3.4-2.5,5.2-3.3
	c1.8-0.8,3.6-1.2,5.5-1.2c3.5,0,6.1,1,7.9,3.1c1.8,2.1,2.7,5.1,2.7,9V244.1z"/>
<path class="st5" d="M396.4,243.8c-1,0.3-2.1,0.5-3.3,0.7c-1.2,0.2-2.3,0.3-3.2,0.3c-3.3,0-5.7-0.9-7.4-2.6
	c-1.7-1.7-2.5-4.6-2.5-8.4v-17h-3.6v-4.5h3.6V203h5.4v9.2h11.1v4.5h-11.1v14.6c0,1.7,0,3,0.1,3.9c0.1,0.9,0.3,1.8,0.8,2.6
	c0.4,0.8,1,1.3,1.7,1.7c0.7,0.4,1.9,0.5,3.4,0.5c0.9,0,1.8-0.1,2.7-0.4c1-0.3,1.6-0.5,2.1-0.6h0.3V243.8z"/>
</svg>
